<?xml version="1.0" encoding="UTF-8"?>
<!-- Created with Inkscape (http://www.inkscape.org/) -->
<svg id="SVGRoot" width="1300px" height="598px" version="1.1" viewBox="0 0 1300 598" xmlns="http://www.w3.org/2000/svg">
 <g fill="#727384" fill-opacity=".25" stroke-width="1.273">
  <path d="m99.213 326.89c-7.5247-3.653-9.0325-12.519-3.1364-18.419 6.0884-6.0875 14.705-4.8038 18.624 2.7721 5.1046 9.8706-5.4482 20.523-15.493 15.645z"/>
  <path d="m204.19 333.74c-7.4818-2.5046-7.6861-12.446-0.32287-15.955 4.1466-1.9741 4.5202-1.951 7.8471 0.51198 8.6317 6.4163 2.5876 18.823-7.5196 15.438z"/>
  <path d="m-1.9502 333.56c-6.7051-3.344-7.0824-10.594-0.79332-15.289 8.295-6.1936 17.817 7.6326 9.64 13.998-3.1272 2.4354-5.7757 2.8228-8.8457 1.2915z"/>
  <path d="m172.95 383.79c-5.2858-3.3163-7.8508-10.953-5.551-16.518 5.8762-14.191 26.797-10.454 26.797 4.7858 0 10.891-12.019 17.525-21.253 11.732z"/>
  <path d="m23.619 385.31c-11.095-4.0359-12.158-20.326-1.6743-25.688 6.8112-3.4824 16.05-0.0462 19.017 7.0307 4.6355 11.099-6.1687 22.723-17.342 18.657z"/>
  <path d="m99.149 401.37c-9.0606-2.6522-13.983-13.896-9.7843-22.347 8.0759-16.251 31.214-11.266 31.214 6.724 0 11.52-10.155 18.923-21.429 15.623z"/>
  <path d="m258.66 418.49c-7.5238-7.5238-2.5506-19.558 8.0999-19.558 7.0344 0 11.457 4.308 11.457 11.161 0 10.403-12.28 15.675-19.557 8.3969z"/>
  <path d="m-66.183 418.73c-7.2913-7.2908-2.1771-19.789 8.1008-19.789 10.737 0 15.555 11.605 7.967 19.193-4.8624 4.8629-11.553 5.111-16.068 0.595z"/>
  <path d="m199.33 459.69c-8.0625-4.082-11.235-15.608-6.4551-23.451 8.569-14.054 30.593-7.9131 30.593 8.5307 0 11.934-13.523 20.292-24.14 14.92z"/>
  <path d="m-5.0225 460.1c-11.644-4.8168-12.572-22.655-1.5221-29.389 14.465-8.8203 31.405 8.1197 22.585 22.585-4.1696 6.843-13.598 9.8886-21.056 6.8038z"/>
  <path d="m132.46 471.65c-25.653-6.676-29.756-40.892-6.3227-52.717 23.377-11.796 49.375 12.419 38.675 36.022-5.8739 12.958-19.566 20.023-32.354 16.696z"/>
  <path d="m61.311 471.26c-15.064-4.1696-24.096-24.091-17.495-38.586 13.907-30.535 59.375-15.93 53.37 17.142-2.8643 15.79-19.78 25.9-35.875 21.444z"/>
  <path d="m306.62 512.22c-5.6046-2.237-7.1945-9.7354-2.952-13.982 3.2472-3.2518 10.32-3.3671 13.17-0.23062 6.1414 6.7867-1.6466 17.616-10.223 14.2z"/>
  <path d="m-106.69 510.87c-6.5838-5.1784-3.2656-15.207 5.0197-15.164 9.7262 0.0462 12.409 12.338 3.57 16.364-4.225 1.9234-4.7056 1.8588-8.5929-1.1992z"/>
  <path d="m254.03 517.74c-17.352-5.4293-14.491-27.224 3.5608-27.116 10.255 0.0462 16.05 10.726 11.064 20.365-2.5876 5.0063-9.7036 8.2904-14.625 6.7507z"/>
  <path d="m-53.55 516.79c-5.4994-2.4169-8.1192-6.6751-8.1192-13.206 0-12.057 13.886-17.603 23.212-9.2705 11.205 10.011-1.2454 28.556-15.092 22.477z"/>
  <path d="m164.6 530.79c-27.396-9.7774-24.027-50.445 4.5294-54.729 16.75-2.5092 32.599 10.889 32.675 27.626 0.0447 19.295-19.37 33.469-37.21 27.103z"/>
  <path d="m26.973 531.3c-11.308-3.3855-19.901-15.189-19.901-27.33 0-30.087 41.108-38.869 53.63-11.457 9.8231 21.507-11.097 45.566-33.728 38.787z"/>
  <path d="m197.91 576.81c-13.551-9.1317-7.2567-30.195 9.0228-30.195 5.5086 0 11.121 3.2056 14.054 8.0178 9.0616 14.861-8.6612 31.892-23.077 22.177z"/>
  <path d="m-5.0225 578.49c-7.6146-3.1503-11.921-15.506-7.991-22.934 5.9021-11.151 22.491-11.683 29.048-0.93172 8.2604 13.549-6.2425 29.991-21.057 23.865z"/>
  <path d="m129.58 590.74c-21.287-7.7207-25.457-37.732-6.9173-49.79 15.86-10.316 34.422-5.0202 42.15 12.027 9.9554 21.963-12.483 46.014-35.232 37.763z"/>
  <path d="m61.342 591.13c-18.856-5.6488-26.164-30.575-13.269-45.262 17.292-19.696 49.563-8.1843 49.56 17.679 0 19.527-17.863 33.103-36.291 27.583z"/>
  <path d="m262.08 608.41c-11.093-4.8255-7.8679-22.331 4.1143-22.331 12.918 0 16.779 17.444 4.9551 22.385-5.0695 2.1171-4.0635 2.1217-9.0671-0.0462z"/>
  <path d="m-62.524 608.41c-11.341-4.9339-7.9758-22.331 4.3172-22.331 12.576 0 16.299 17.558 4.7462 22.385-5.0658 2.1171-4.0635 2.1217-9.0671-0.0462z"/>
  <path d="m97.981 637.77c-16.471-7.3504-11.612-31.755 6.3213-31.755 20.751 0 22.599 29.448 2.0618 32.784-2.6014 0.41513-6.0884-0.01-8.3831-1.0286z"/>
  <path d="m172.27 647.22c-11.369-8.9426-4.368-26.754 9.8392-25.011 10.067 1.2361 15.249 12.233 9.973 21.163-3.8698 6.5538-13.897 8.5012-19.812 3.8468z"/>
  <path d="m21.711 648.24c-12.288-6.7572-7.7221-25.891 6.1756-25.891 13.642 0 19.403 17.526 8.313 25.293-3.3855 2.3662-10.723 2.6706-14.49 0.60421z"/>
  <path d="m203.13 690.09c-7.8144-3.9528-5.2199-15.072 3.7314-15.956 8.6262-0.8533 12.533 9.5256 5.623 14.955-3.8836 3.058-5.0451 3.178-9.354 1.0009z"/>
  <path d="m-2.8219 690.17c-7.783-3.7499-4.5847-16.256 4.165-16.256 9.3927 0 12.154 12.52 3.6254 16.409-3.6669 1.6697-4.022 1.6605-7.7839-0.1384z"/>
  <path d="m96.082 699.47c-4.7434-4.7443-4.8915-9.9707-0.41513-15.276 7.1506-8.4984 20.196-3.4962 20.196 7.747 0 10.491-12.172 15.127-19.77 7.5288z"/>
 </g>
</svg>
