<svg id="SVGRoot" width="24px" height="24px" version="1.1" viewBox="0 0 24 24" xmlns="http://www.w3.org/2000/svg">
 <path d="m7.4334 17.501 8.7902-12.557a0.68491 0.68491 0 1 1 1.1219 0.78491l-9.1957 13.137a0.68491 0.68491 0 0 1-0.97257 0.15617l-4.9314-3.6985a0.68492 0.68492 0 0 1 0.8219-1.0959zm9.7436-6.5437a0.68491 0.68491 0 1 1 0-1.3698h4.1095a0.68491 0.68491 0 1 1 0 1.3698zm-2.7397 4.1095a0.68491 0.68491 0 0 1 0-1.3698h6.8478a0.68491 0.68491 0 1 1 0 1.3698zm-2.7396 4.1095a0.68491 0.68491 0 1 1 0-1.3698h9.5874a0.68491 0.68491 0 1 1 0 1.3698z" fill="#fff" stroke-width=".021404"/>
</svg>
