<?xml version="1.0" encoding="UTF-8" standalone="no"?>
<!-- Created with Inkscape (http://www.inkscape.org/) -->

<svg
   xmlns:dc="http://purl.org/dc/elements/1.1/"
   xmlns:cc="http://creativecommons.org/ns#"
   xmlns:rdf="http://www.w3.org/1999/02/22-rdf-syntax-ns#"
   xmlns:svg="http://www.w3.org/2000/svg"
   xmlns="http://www.w3.org/2000/svg"
   xmlns:sodipodi="http://sodipodi.sourceforge.net/DTD/sodipodi-0.dtd"
   xmlns:inkscape="http://www.inkscape.org/namespaces/inkscape"
   width="24px"
   height="24px"
   viewBox="0 0 24 24"
   version="1.1"
   id="SVGRoot"
   inkscape:version="0.92.4 (5da689c313, 2019-01-14)"
   sodipodi:docname="icon01.svg">
  <defs
     id="defs815" />
  <sodipodi:namedview
     id="base"
     pagecolor="#ffffff"
     bordercolor="#FFFFFF"
     borderopacity="1.0"
     inkscape:pageopacity="0.0"
     inkscape:pageshadow="2"
     inkscape:zoom="15.084944"
     inkscape:cx="2.5225008"
     inkscape:cy="19.773131"
     inkscape:document-units="px"
     inkscape:current-layer="layer1"
     showgrid="false"
     inkscape:window-width="1920"
     inkscape:window-height="1016"
     inkscape:window-x="0"
     inkscape:window-y="27"
     inkscape:window-maximized="1" />
  <metadata
     id="metadata818">
    <rdf:RDF>
      <cc:Work
         rdf:about="">
        <dc:format>image/svg+xml</dc:format>
        <dc:type
           rdf:resource="http://purl.org/dc/dcmitype/StillImage" />
        <dc:title />
      </cc:Work>
    </rdf:RDF>
  </metadata>
  <g
     inkscape:label="Layer 1"
     inkscape:groupmode="layer"
     id="layer1">
    <path
       inkscape:connector-curvature="0"
       style="fill:currentColor;fill-opacity:1;stroke-width:0.02232143"
       d="m 13.959925,2.046875 a 0.71428571,0.71428571 0 0 1 0.68,0.4957167 l 0.785717,2.441425 c 0.330001,0.1614333 0.645717,0.3428583 0.947143,0.5471417 l 2.508574,-0.54 a 0.71428571,0.71428571 0 0 1 0.768566,0.3428582 l 1.98,3.4271414 a 0.71428571,0.71428571 0 0 1 -0.09,0.837142 l -1.721426,1.9 a 7.9714286,7.9714286 0 0 1 0,1.094291 l 1.721426,1.90286 a 0.71428571,0.71428571 0 0 1 0.09,0.837141 l -1.98,3.428566 a 0.71428571,0.71428571 0 0 1 -0.768566,0.341434 l -2.508574,-0.540001 c -0.300001,0.202858 -0.617142,0.385708 -0.945718,0.547143 l -0.787142,2.441424 a 0.71428571,0.71428571 0 0 1 -0.68,0.495717 H 9.9999249 A 0.71428571,0.71428571 0 0 1 9.3199255,21.551158 l -0.7842837,-2.44 a 7.8485714,7.8485714 0 0 1 -0.9500003,-0.55 L 5.0784999,19.102592 A 0.71428571,0.71428571 0 0 1 4.309925,18.759733 L 2.3299249,15.332592 a 0.71428571,0.71428571 0 0 1 0.09,-0.837141 l 1.7214333,-1.90286 a 7.9714286,7.9714286 0 0 1 0,-1.091432 L 2.4199249,9.5983 a 0.71428571,0.71428571 0 0 1 -0.09,-0.837142 L 4.309925,5.3325917 A 0.71428571,0.71428571 0 0 1 5.0784999,4.9911584 l 2.5071416,0.5414333 c 0.3028584,-0.2042917 0.6200001,-0.388575 0.9500003,-0.55 l 0.7857168,-2.44 A 0.71428571,0.71428571 0 0 1 9.9984999,2.046875 H 13.958499 Z M 13.437067,3.47545 H 10.522783 L 9.7113588,5.9997333 9.1642082,6.2668749 A 6.5650223,6.5650223 0 0 0 8.3870668,6.71545 L 7.8813582,7.0583 5.2870667,6.4983001 3.829925,9.024017 5.6085001,10.992591 5.5656671,11.5983 a 6.5428572,6.5428572 0 0 0 0,0.89715 l 0.042834,0.605709 -1.7814335,1.968574 1.4585751,2.525718 2.594283,-0.558576 0.5057169,0.341424 a 6.5650223,6.5650223 0 0 0 0.7771419,0.448576 l 0.547141,0.267142 0.8128585,2.524282 h 2.917142 l 0.814283,-2.525707 0.545716,-0.265717 a 6.434866,6.434866 0 0 0 0.775718,-0.448576 l 0.504283,-0.341424 2.595717,0.558576 1.457142,-2.525718 -1.78,-1.968574 0.04284,-0.605709 a 6.5428572,6.5428572 0 0 0 0,-0.898575 L 18.352785,10.991158 20.13421,9.024017 18.675642,6.4983001 16.079925,7.05545 15.575643,6.71545 A 6.4200001,6.4200001 0 0 0 14.799925,6.2668749 L 14.254208,6.0011583 13.438501,3.47545 Z m -1.457142,4.2857083 a 4.2857169,4.2857169 0 1 1 0,8.5714337 4.2857169,4.2857169 0 0 1 0,-8.5714337 z m 0,1.4285747 a 2.857143,2.857143 0 1 0 0,5.714283 2.857143,2.857143 0 0 0 0,-5.714283 z"
       id="path1419" />
  </g>
</svg>
